<?xml version="1.0" encoding="UTF-8"?>
<svg width="40px" height="40px" viewBox="0 0 40 40" version="1.1" xmlns="http://www.w3.org/2000/svg" xmlns:xlink="http://www.w3.org/1999/xlink">
    <title>logo_p</title>
    <g id="可视化平台" stroke="none" stroke-width="1" fill="none" fill-rule="evenodd">
        <g id="logo_p" transform="translate(0.000000, 0.001953)">
            <g id="logo_中台" transform="translate(5.000000, 3.333333)">
                <g id="编组" transform="translate(0.000000, 0.000000)">
                    <path d="M3.33333333,0 L13.6444444,0 L10.3111111,6.66666667 L0,6.66666667 L3.33333333,0 Z M3.33333333,26.6666667 L13.6444444,26.6666667 L10.3111111,33.3333333 L0,33.3333333 L3.33333333,26.6666667 Z" id="形状结合" fill="#408DFF"></path>
                    <polygon id="矩形备份" fill="#FFC74F" points="3.33333333 13.3333333 13.6444444 13.3333333 10.3111111 20 3.94129174e-15 20"></polygon>
                    <path d="M19.1111111,0 C24.6339586,0 29.1111111,4.4771525 29.1111111,10 C29.1111111,15.5228475 24.6339586,20 19.1111111,20 L19.1111111,13.3333333 L19.1111111,13.3333333 C20.9520603,13.3333333 22.4444444,11.8409492 22.4444444,10 C22.4444444,8.15905083 20.9520603,6.66666667 19.1111111,6.66666667 L19.1111111,0 L19.1111111,0 Z M19.1111111,0 L19.1111111,6.66666667 L15.7777778,6.66666667 L19.1111111,0 Z M19.1111111,13.3333333 L19.1111111,20 L15.7777778,20 L19.1111111,13.3333333 Z" id="形状结合" fill="#408DFF"></path>
                </g>
            </g>
        </g>
    </g>
</svg>